HIERARCHY
ROOT hip
{
	OFFSET 0.000000 0.000000 0.000000 
	CHANNELS 6 Xposition Yposition Zposition Xrotation Zrotation Yrotation
	JOINT abdomen
	{
		OFFSET 0.000000 3.402643 0.000000 
		CHANNELS 3 Xrotation Zrotation Yrotation
		JOINT chest
		{
			OFFSET 0.000000 8.438565 -0.680529 
			CHANNELS 3 Xrotation Zrotation Yrotation
			JOINT neck
			{
				OFFSET 0.000000 10.207942 -0.272212 
				CHANNELS 3 Xrotation Zrotation Yrotation
				JOINT head
				{
					OFFSET 0.000000 3.130431 0.000000 
					CHANNELS 3 Xrotation Zrotation Yrotation
					End Site
					{
						OFFSET 0.000000 3.130435 0.000000 
					}
				}
			}
			JOINT lCollar
			{
				OFFSET 3.470700 6.669187 -0.816635 
				CHANNELS 3 Yrotation Zrotation Xrotation
				JOINT lShldr
				{
					OFFSET 3.198488 0.000000 0.000000 
					CHANNELS 3 Zrotation Yrotation Xrotation
					JOINT lForeArm
					{
						OFFSET 10.139888 0.000000 0.000000 
						CHANNELS 3 Yrotation Zrotation Xrotation
						JOINT lHand
						{
							OFFSET 8.370511 0.000000 0.000000 
							CHANNELS 3 Zrotation Yrotation Xrotation
							End Site
							{
								OFFSET 4.083176 0.000000 0.000000 
							}
						}
					}
				}
			}
			JOINT rCollar
			{
				OFFSET -3.470700 6.669187 -0.816635 
				CHANNELS 3 Yrotation Zrotation Xrotation
				JOINT rShldr
				{
					OFFSET -3.198488 0.000000 0.000000 
					CHANNELS 3 Zrotation Yrotation Xrotation
					JOINT rForeArm
					{
						OFFSET -10.139888 0.000000 0.000000 
						CHANNELS 3 Yrotation Zrotation Xrotation
						JOINT rHand
						{
							OFFSET -8.370511 0.000000 0.000000 
							CHANNELS 3 Zrotation Yrotation Xrotation
							End Site
							{
								OFFSET -4.083176 0.000000 0.000000 
							}
						}
					}
				}
			}
		}
	}
	JOINT lThigh
	{
		OFFSET 5.308129 -1.633274 1.361059 
		CHANNELS 3 Xrotation Zrotation Yrotation
		JOINT lShin
		{
			OFFSET -2.041588 -20.007561 0.000000 
			CHANNELS 3 Xrotation Zrotation Yrotation
			JOINT lFoot
			{
				OFFSET 0.000000 -19.190928 -1.224953 
				CHANNELS 3 Xrotation Yrotation Zrotation
				End Site
				{
					OFFSET 0.000000 -2.449906 4.627600 
				}
			}
		}
	}
	JOINT rThigh
	{
		OFFSET -5.308129 -1.633274 1.361059 
		CHANNELS 3 Xrotation Zrotation Yrotation
		JOINT rShin
		{
			OFFSET 2.041588 -20.007561 0.000000 
			CHANNELS 3 Xrotation Zrotation Yrotation
			JOINT rFoot
			{
				OFFSET 0.000000 -19.190928 -1.224953 
				CHANNELS 3 Xrotation Yrotation Zrotation
				End Site
				{
					OFFSET 0.000000 -2.449906 4.627600 
				}
			}
		}
	}
}
MOTION
Frames: 6
Frame Time: 0.016667
-0.497274 48.887211 -0.088186 -11.477044 -2.203789 3.107676 42.785728 -3.270236 -1.585026 -15.245798 8.935504 0.178199 -2.929820 0.545488 4.082218 1.210443 -0.886001 4.443884 -6.085297 -7.694278 -0.009623 -72.853325 5.398230 0.753575 -50.937511 4.226562 55.957447 -14.529523 15.402756 -3.945316 12.587634 -1.545097 -0.009527 70.928535 -17.406511 -3.516746 54.406887 -3.415357 41.764206 -2.901594 -1.853586 0.084122 -9.253537 9.565680 1.844417 39.843113 -0.701716 -3.004506 -2.819556 -1.322681 -12.251504 -27.079037 -18.251076 -11.408050 66.721252 -0.976199 3.988562 14.296724 9.551001 9.906468 
-0.664755 48.734001 -0.215261 -11.559913 -2.486076 3.313358 43.475765 -3.299361 -1.682523 -14.744068 9.111276 0.199034 -2.549673 0.749732 4.404685 -0.805941 -0.642266 4.804932 -6.203846 -7.839687 -0.019236 -72.352844 5.196057 0.124782 -52.436527 4.211029 55.866390 -14.882142 15.085006 -3.963665 12.656002 -1.496280 -0.009525 70.929749 -17.686422 -4.020774 55.546680 -3.371214 40.946651 -4.006445 -2.182841 0.142970 -10.091536 10.208385 1.944826 41.012997 -0.627362 -3.094185 -2.750234 -1.830831 -12.294869 -29.564997 -19.194195 -11.384985 71.163765 -1.288610 4.076096 14.619018 8.828348 10.035064 
-0.891694 48.611572 -0.310264 -11.498005 -3.059937 3.725816 43.901230 -3.016441 -1.574712 -14.208253 9.257728 0.248816 -2.381281 0.652356 4.414443 -1.525857 -0.262757 4.775430 -6.290431 -8.026274 -0.009612 -71.926094 4.926899 -0.622642 -53.778778 4.193408 55.598068 -14.892198 14.942092 -3.929872 12.616942 -1.476743 -0.009527 70.970306 -17.969336 -4.493765 56.328262 -3.224616 39.030033 -5.112437 -2.646566 0.226668 -11.079724 11.138146 1.659804 42.096085 -0.575511 -3.147711 -2.476943 -2.318869 -12.337947 -31.482248 -19.949377 -11.271094 74.505943 -1.523130 4.115041 15.057324 8.178704 10.133381 
-1.118621 48.489155 -0.405262 -11.443765 -3.633147 4.128886 44.318005 -2.733480 -1.466902 -13.680383 9.394399 0.308238 -2.212922 0.554982 4.424094 -2.237206 0.107054 4.746103 -6.388119 -8.211805 -0.009606 -71.501839 4.666354 -1.363892 -55.128628 4.182834 55.324005 -14.912412 14.798533 -3.901001 12.577884 -1.457205 -0.009528 71.022659 -18.253723 -4.979517 57.105251 -3.100967 37.111469 -6.219588 -3.107697 0.328232 -12.097315 12.067965 1.367171 43.179749 -0.526876 -3.182313 -2.201730 -2.843200 -12.351135 -33.412647 -20.688696 -11.135977 77.848427 -1.757624 4.138262 15.491851 7.540944 10.219322 
-1.368940 48.361366 -0.455131 -11.468276 -4.147409 4.493968 44.728745 -2.509030 -1.388382 -13.343851 9.335779 0.337138 -2.133605 0.847221 4.297415 -2.239998 0.194667 4.658242 -6.388105 -8.133679 -0.009607 -71.253059 4.605525 -2.150209 -56.265755 4.143022 54.751873 -14.436148 15.085920 -3.842135 12.607193 -1.379085 -0.009527 71.229225 -18.608643 -5.467099 57.431564 -2.930940 34.839451 -7.072778 -3.441678 0.416788 -12.924026 12.972787 1.144391 44.193630 -0.471569 -3.249092 -2.088544 -3.343369 -12.352845 -34.636742 -21.502251 -10.643743 79.962891 -1.913710 4.146779 16.130281 7.106387 10.268423 
-1.619250 48.233578 -0.504997 -11.500201 -4.670722 4.859434 45.150093 -2.294323 -1.309890 -13.005789 9.277147 0.377260 -2.054672 1.149279 4.180608 -2.243107 0.282306 4.560636 -6.397860 -8.065318 -0.009609 -71.007736 4.564276 -2.943055 -57.414310 4.121616 54.165993 -13.958315 15.363871 -3.776535 12.636503 -1.300965 -0.009527 71.436806 -18.957211 -5.951194 57.766953 -2.781327 32.562923 -7.926166 -3.774996 0.505101 -13.766003 13.883150 0.878677 45.208351 -0.439680 -3.295254 -1.975353 -3.829137 -12.338083 -35.873150 -22.289982 -10.122504 82.096291 -2.080005 4.159786 16.788881 6.685122 10.322341 
